<?xml version="1.0" encoding="UTF-8"?>
<svg width="24" height="24" viewBox="0 0 24 24" fill="none" xmlns="http://www.w3.org/2000/svg">
    <path fill-rule="evenodd" clip-rule="evenodd" d="M12 2C6.477 2 2 6.477 2 12C2 17.523 6.477 22 12 22C17.523 22 22 17.523 22 12C22 6.477 17.523 2 12 2ZM12 4C7.582 4 4 7.582 4 12C4 16.418 7.582 20 12 20C16.418 20 20 16.418 20 12C20 7.582 16.418 4 12 4Z" fill="currentColor"/>
    <path d="M8 10C8.552 10 9 10.448 9 11C9 11.552 8.552 12 8 12C7.448 12 7 11.552 7 11C7 10.448 7.448 10 8 10Z" fill="currentColor"/>
    <path d="M16 10C16.552 10 17 10.448 17 11C17 11.552 16.552 12 16 12C15.448 12 15 11.552 15 11C15 10.448 15.448 10 16 10Z" fill="currentColor"/>
    <path d="M12 14C10.895 14 10 14.895 10 16H14C14 14.895 13.105 14 12 14Z" fill="currentColor"/>
    <path d="M7.5 7.5L9 9M16.5 7.5L15 9" stroke="currentColor" stroke-width="1.5" stroke-linecap="round"/>
</svg>
